PathFileType	4	(X/Y/Z)	D:\TRACE\v60_Jaco2_6-2-23\BothDRS_Motion1_2-v60.trc
DataRate	CameraRate	NumFrames	NumMarkers	Units	OrigDataRate	OrigDataStartFrame	OrigNumFrames
100.00	100.00	      24	9	mm	100.00	4357	      6970
Frame#	Time	front left toe			Front right toe			aft left toe			aft right toe			Arm			FL body			FR body			AL Body			AR Body			
		X1	Y1	Z1	X2	Y2	Z2	X3	Y3	Z3	X4	Y4	Z4	X5	Y5	Z5	X6	Y6	Z6	X7	Y7	Z7	X8	Y8	Z8	X9	Y9	Z9	

4357	43.560	-204.83177	5.81211	-255.71248	184.99265	98.71149	-280.29645	-172.51598	120.93838	358.75565	196.61386	30.14364	357.91422	45.40083	1099.02747	-713.09882	-88.53794	561.45514	-400.59122	70.76504	562.18103	-406.87259	-52.88112	586.57977	543.92548	103.10500	581.91327	540.70068	
4358	43.570	-203.92178	5.73508	-255.81776	185.53540	88.68701	-281.87552	-172.72382	111.67892	357.76758	197.69336	30.19089	357.84372	46.34330	1098.80713	-713.41302	-87.76262	561.25806	-400.64026	72.08341	561.97852	-407.48294	-51.18275	586.37256	543.66907	105.68763	581.66748	539.21942	
4359	43.580	-203.08917	5.51991	-255.77740	185.87732	78.39620	-283.52420	-172.08287	101.42489	356.46451	198.91702	30.12871	357.95953	47.27409	1098.17456	-713.66418	-87.72505	561.17133	-401.04977	72.97713	561.66846	-407.51431	-49.64503	586.24640	543.63928	107.64146	581.63574	539.40802	
4360	43.590	-202.11427	5.49960	-255.73570	186.35555	68.42846	-284.76563	-170.47313	90.83066	355.32010	200.02141	30.01622	357.87680	48.60563	1097.52222	-714.14453	-86.26855	561.41589	-401.09631	73.38971	561.42365	-407.65591	-47.78615	586.14624	543.61627	109.18728	581.12024	538.65961	
4361	43.600	-200.88327	5.37737	-255.68318	186.77701	59.22674	-285.83560	-168.85428	81.47607	353.97043	201.00787	29.87337	357.72037	49.46898	1097.31873	-714.53851	-85.61347	561.48938	-401.28574	74.66986	561.39758	-408.18509	-46.03323	585.95551	543.35754	110.85732	580.87482	538.38123	
4362	43.610	-199.91812	5.27946	-255.64957	187.51627	49.95517	-286.87283	-167.24721	72.71228	352.93600	201.68394	29.74747	357.74915	51.18229	1097.41846	-714.57574	-83.97613	561.30438	-401.05838	75.61427	561.46826	-408.39645	-44.74648	585.84839	543.23218	111.82055	580.18317	537.79816	
4363	43.620	-199.66194	6.01576	-255.76430	188.74586	40.99449	-287.19208	-163.95842	62.90603	352.81982	202.85056	29.75615	357.69684	52.49874	1097.62122	-714.83887	-83.48260	561.43298	-401.54974	76.29573	561.20068	-408.41336	-42.74243	585.84924	542.83533	114.43747	580.41705	537.80817	
4364	43.630	-198.51968	5.53220	-255.71371	190.33563	32.62741	-287.02686	-161.71277	53.77966	353.66272	203.94778	29.71250	357.74478	53.69669	1097.93665	-715.01807	-82.38486	561.54309	-402.02734	77.58547	561.13721	-409.27115	-41.00276	585.84851	542.47961	116.02229	580.42480	537.27533	
4365	43.640	-197.80183	5.55357	-255.46635	191.84914	24.87046	-286.39743	-160.64993	46.93680	354.33768	205.00865	29.56894	357.63055	54.67624	1098.08081	-715.49982	-81.42001	561.19147	-402.10156	78.63096	560.91217	-409.79575	-39.49415	585.74292	542.13629	117.76295	580.47211	536.93542	
4366	43.650	-196.83899	5.68287	-255.58136	194.02864	18.35096	-285.88300	-158.95349	40.63250	355.19101	205.78329	29.49008	357.57953	55.64879	1098.11572	-716.08905	-81.06839	561.54553	-402.89874	79.29580	560.84485	-410.05719	-37.79555	586.05865	541.82178	119.55181	580.44055	536.49084	
4367	43.660	-195.82544	5.92599	-255.63887	195.74907	12.25988	-285.43182	-157.57494	34.73050	355.35770	206.69136	29.35726	357.54083	56.90399	1097.85669	-716.57458	-79.84235	561.63983	-403.12808	80.73043	560.90253	-410.57388	-35.90935	586.18634	541.48993	121.55824	580.80884	536.73981	
4368	43.670	-195.20392	5.97701	-255.54579	197.12473	7.34632	-286.04861	-156.02065	29.54544	355.19983	207.59976	29.29909	357.52783	57.89040	1097.61267	-717.34491	-78.52197	561.41760	-403.38791	81.35567	560.70892	-410.71417	-34.22807	586.48859	541.16113	122.83209	580.62054	535.45850	
4369	43.680	-193.63481	5.88549	-255.54579	198.72331	4.76481	-286.85443	-156.12868	29.36619	353.38580	208.62640	29.28975	357.48886	59.09896	1096.84924	-718.00366	-77.39810	561.57550	-403.86685	82.87643	560.85400	-411.43268	-32.22304	586.97577	540.45459	125.56336	581.05908	534.94891	
4370	43.690	-192.50664	5.94299	-255.32516	200.15184	4.43279	-288.29962	-155.86374	26.86108	353.41339	209.47443	29.48559	357.40128	59.93010	1096.52966	-719.04944	-76.28468	561.72760	-403.91736	83.57645	561.08661	-411.69275	-30.68693	588.14038	540.25372	126.61289	582.08032	534.45074	
4371	43.700	-191.31023	6.63058	-255.35718	200.80861	4.38565	-287.41623	-154.18581	28.56017	354.14532	210.30753	30.13859	357.24103	61.11486	1096.63525	-720.15936	-75.50463	562.53680	-404.12811	84.73515	561.73798	-412.38171	-28.94084	589.81104	539.44482	128.40233	583.64142	533.92468	
4372	43.710	-189.22133	10.70828	-255.69339	201.01828	4.01389	-287.39899	-152.84816	27.45364	354.20325	210.74396	33.59665	357.57663	62.30812	1096.95142	-721.28253	-74.32783	563.05237	-404.34067	85.52024	562.64990	-412.89148	-26.93281	591.28674	539.03259	130.52855	584.71509	533.33667	
4373	43.720	-184.24101	14.74324	-251.76730	201.66977	4.23329	-287.84967	-151.97545	27.09873	353.94501	209.21176	37.52974	362.33029	62.95202	1097.38428	-722.09552	-74.31924	564.42474	-405.19861	85.63094	563.35266	-413.38013	-24.80769	591.67145	538.82532	133.55530	585.33844	532.64136	
4374	43.730	-179.18979	21.74059	-248.02469	202.50493	4.11685	-287.86896	-151.19788	27.71993	353.96689	206.99126	44.97286	365.60864	63.74400	1098.12878	-722.41400	-73.18811	564.73669	-405.72470	87.17937	563.66864	-414.52750	-23.57370	592.21033	537.80933	133.94154	585.54645	531.77643	
4375	43.740	-176.19847	31.91710	-247.36635	203.90366	3.78194	-287.94446	-150.36230	27.34727	354.08151	206.57234	54.95316	365.72607	64.65829	1099.12012	-722.84613	-71.98445	564.44232	-406.49246	87.55219	563.56464	-414.90723	-21.97712	592.57776	537.38818	135.59146	586.03748	531.21033	
4376	43.750	-174.27753	43.17252	-247.63908	204.71756	3.56058	-287.91702	-149.12833	27.26406	353.93173	207.54489	66.56805	364.82455	65.30421	1100.25073	-723.15643	-70.32248	564.27307	-406.84674	89.56845	563.29034	-415.62433	-20.06160	592.69958	537.48828	136.71802	586.07031	530.85028	
4377	43.760	-174.32106	55.72901	-250.06371	205.56657	3.34720	-287.75955	-148.61377	27.03393	353.88351	211.81853	78.95134	362.11691	65.81612	1100.78064	-723.72168	-68.49409	563.79138	-407.28070	90.39359	562.49628	-415.71732	-20.02571	593.52716	537.97729	138.09241	586.17206	531.43463	
4378	43.770	-174.67914	68.64326	-252.76732	206.31032	3.40953	-287.70819	-148.12732	27.01435	353.89679	215.41742	91.68871	358.48544	66.58619	1100.43762	-724.26843	-67.60902	563.61243	-407.87845	92.37115	562.63519	-416.77155	-19.00912	591.91937	535.86389	138.56329	585.36743	530.12683	
4379	43.780	-174.60529	81.26891	-255.76698	207.30956	3.19350	-287.82281	-147.79706	26.84810	353.87363	220.41531	104.43019	354.79166	68.29058	1099.13025	-724.39209	-66.14961	563.30707	-408.36563	93.42462	562.37921	-416.66409	-18.12347	591.31512	535.60437	139.11856	584.94269	529.67139	
4380	43.790	-173.02977	93.27380	-258.66785	208.25862	3.28607	-287.69305	-146.68463	26.37493	353.90424	223.73302	116.32375	351.34195	70.18581	1098.10645	-724.72302	-65.15768	563.11896	-409.04385	94.96474	562.40991	-417.20154	-17.34078	590.68079	535.97943	140.13127	584.27356	529.58960	
